<?xml version="1.0" encoding="UTF-8"?>
<!DOCTYPE svg PUBLIC "-//W3C//DTD SVG 1.1//EN" "http://www.w3.org/Graphics/SVG/1.1/DTD/svg11.dtd">
<svg xmlns="http://www.w3.org/2000/svg" version="1.1" width="600px" height="600px" style="shape-rendering:geometricPrecision; text-rendering:geometricPrecision; image-rendering:optimizeQuality; fill-rule:evenodd; clip-rule:evenodd" xmlns:xlink="http://www.w3.org/1999/xlink">
<g><path style="opacity:0.004" fill="#fefffe" d="M 123.5,79.5 C 124.833,80.1667 124.833,80.1667 123.5,79.5 Z"/></g>
<g><path style="opacity:0.004" fill="#fefffe" d="M 149.5,79.5 C 150.833,80.1667 150.833,80.1667 149.5,79.5 Z"/></g>
<g><path style="opacity:0.004" fill="#fefffe" d="M 141.5,80.5 C 142.833,81.1667 142.833,81.1667 141.5,80.5 Z"/></g>
<g><path style="opacity:0.004" fill="#fefffe" d="M 127.5,81.5 C 128.833,82.1667 128.833,82.1667 127.5,81.5 Z"/></g>
<g><path style="opacity:0.004" fill="#fefffe" d="M 147.5,81.5 C 148.833,82.1667 148.833,82.1667 147.5,81.5 Z"/></g>
<g><path style="opacity:0.004" fill="#fefffe" d="M 452.5,82.5 C 451.833,81.1667 451.833,81.1667 452.5,82.5 Z"/></g>
<g><path style="opacity:0.004" fill="#fefffe" d="M 466.5,81.5 C 467.833,82.1667 467.833,82.1667 466.5,81.5 Z"/></g>
<g><path style="opacity:0.004" fill="#fefffe" d="M 475.5,81.5 C 476.833,82.1667 476.833,82.1667 475.5,81.5 Z"/></g>
<g><path style="opacity:0.004" fill="#fefffe" d="M 125.5,82.5 C 126.525,82.8966 126.692,83.5632 126,84.5C 125.536,83.9056 125.369,83.2389 125.5,82.5 Z"/></g>
<g><path style="opacity:0.004" fill="#fefffe" d="M 461.5,82.5 C 462.833,83.1667 462.833,83.1667 461.5,82.5 Z"/></g>
<g><path style="opacity:0.004" fill="#fefffe" d="M 123.5,83.5 C 124.525,83.8966 124.692,84.5632 124,85.5C 123.536,84.9056 123.369,84.2389 123.5,83.5 Z"/></g>
<g><path style="opacity:0.056" fill="#dee5f2" d="M 452.5,82.5 C 455.28,83.0784 457.947,83.7451 460.5,84.5C 457.615,84.8064 454.948,84.4731 452.5,83.5C 452.5,83.1667 452.5,82.8333 452.5,82.5 Z"/></g>
<g><path style="opacity:0.997" fill="#1353a9" d="M 452.5,83.5 C 454.948,84.4731 457.615,84.8064 460.5,84.5C 463.627,85.5808 466.96,86.2474 470.5,86.5C 483.287,90.2906 493.954,97.2906 502.5,107.5C 502.833,108.5 503.5,109.167 504.5,109.5C 504.932,110.71 505.599,111.71 506.5,112.5C 513.967,121.779 518.133,132.112 519,143.5C 519.667,247.167 519.667,350.833 519,454.5C 518.814,457.036 518.314,459.369 517.5,461.5C 516.549,462.919 516.216,464.585 516.5,466.5C 516.737,467.791 516.404,468.791 515.5,469.5C 514.069,470.78 513.402,472.447 513.5,474.5C 510.517,481.802 506.517,488.469 501.5,494.5C 500.833,494.833 500.167,495.167 499.5,495.5C 498.5,495.833 497.833,496.5 497.5,497.5C 493.978,500.75 490.311,503.75 486.5,506.5C 482.74,507.56 479.24,509.56 476,512.5C 475.667,512.167 475.333,511.833 475,511.5C 470.72,513.425 466.22,514.425 461.5,514.5C 353.167,514.5 244.833,514.5 136.5,514.5C 135.081,513.549 133.415,513.216 131.5,513.5C 131.167,513.5 130.833,513.5 130.5,513.5C 129.791,512.596 128.791,512.263 127.5,512.5C 125.799,512.034 124.299,512.034 123,512.5C 121.938,510.205 120.438,509.539 118.5,510.5C 116.802,508.133 114.469,506.466 111.5,505.5C 107.878,503.213 104.545,500.547 101.5,497.5C 101.167,496.5 100.5,495.833 99.5,495.5C 97.4727,494.139 95.806,492.473 94.5,490.5C 86.3994,480.285 81.5661,468.618 80,455.5C 79.3333,351.167 79.3333,246.833 80,142.5C 80.7439,135.19 82.5773,128.19 85.5,121.5C 88.1068,116.626 91.4401,112.292 95.5,108.5C 97.5869,107.415 98.9202,105.749 99.5,103.5C 100.833,103.5 101.5,102.833 101.5,101.5C 106.678,96.7498 112.345,92.7498 118.5,89.5C 119.167,89.5 119.833,89.5 120.5,89.5C 121.496,89.4142 122.329,89.7476 123,90.5C 125.696,88.5512 128.529,86.8846 131.5,85.5C 133.746,84.7904 136.08,84.2904 138.5,84C 243.166,83.5 347.833,83.3333 452.5,83.5 Z"/></g>
<g><path style="opacity:0.286" fill="#d5deee" d="M 470.5,86.5 C 466.96,86.2474 463.627,85.5808 460.5,84.5C 464.047,83.6724 467.381,84.339 470.5,86.5 Z"/></g>
<g><path style="opacity:0.004" fill="#fefffe" d="M 109.5,87.5 C 110.833,88.1667 110.833,88.1667 109.5,87.5 Z"/></g>
<g><path style="opacity:0.765" fill="#8395cc" d="M 131.5,85.5 C 128.529,86.8846 125.696,88.5512 123,90.5C 122.329,89.7476 121.496,89.4142 120.5,89.5C 123.797,87.3987 127.463,86.0653 131.5,85.5 Z"/></g>
<g><path style="opacity:0.004" fill="#fefffe" d="M 118.5,89.5 C 117.833,88.1667 117.833,88.1667 118.5,89.5 Z"/></g>
<g><path style="opacity:0.004" fill="#fefffe" d="M 482.5,88.5 C 483.833,89.1667 483.833,89.1667 482.5,88.5 Z"/></g>
<g><path style="opacity:0.004" fill="#fefffe" d="M 114.5,89.5 C 115.833,90.1667 115.833,90.1667 114.5,89.5 Z"/></g>
<g><path style="opacity:0.004" fill="#fefffe" d="M 103.5,90.5 C 104.833,91.1667 104.833,91.1667 103.5,90.5 Z"/></g>
<g><path style="opacity:0.004" fill="#fefffe" d="M 105.5,90.5 C 106.833,91.1667 106.833,91.1667 105.5,90.5 Z"/></g>
<g><path style="opacity:0.004" fill="#fefffe" d="M 108.5,90.5 C 109.833,91.1667 109.833,91.1667 108.5,90.5 Z"/></g>
<g><path style="opacity:0.004" fill="#fefffe" d="M 496.5,97.5 C 497.833,98.1667 497.833,98.1667 496.5,97.5 Z"/></g>
<g><path style="opacity:0.545" fill="#b4bfe0" d="M 101.5,101.5 C 101.5,102.833 100.833,103.5 99.5,103.5C 99.9867,102.527 100.487,101.527 101,100.5C 101.399,100.728 101.565,101.062 101.5,101.5 Z"/></g>
<g><path style="opacity:0.004" fill="#fefffe" d="M 88.5,104.5 C 89.8333,105.167 89.8333,105.167 88.5,104.5 Z"/></g>
<g><path style="opacity:0.004" fill="#fefffe" d="M 94.5,104.5 C 95.8333,105.167 95.8333,105.167 94.5,104.5 Z"/></g>
<g><path style="opacity:0.004" fill="#fefffe" d="M 90.5,106.5 C 91.8333,107.167 91.8333,107.167 90.5,106.5 Z"/></g>
<g><path style="opacity:0.51" fill="#95aad5" d="M 99.5,103.5 C 98.9202,105.749 97.5869,107.415 95.5,108.5C 96.0798,106.251 97.4131,104.585 99.5,103.5 Z"/></g>
<g><path style="opacity:0.004" fill="#fefffe" d="M 92.5,107.5 C 93.8333,108.167 93.8333,108.167 92.5,107.5 Z"/></g>
<g><path style="opacity:0.004" fill="#ecf0f7" d="M 502.5,107.5 C 503.833,107.5 504.5,108.167 504.5,109.5C 503.5,109.167 502.833,108.5 502.5,107.5 Z"/></g>
<g><path style="opacity:0.016" fill="#edf1f8" d="M 506.5,112.5 C 505.599,111.71 504.932,110.71 504.5,109.5C 505.117,109.389 505.617,109.056 506,108.5C 506.49,109.793 506.657,111.127 506.5,112.5 Z"/></g>
<g><path style="opacity:0.004" fill="#fefffe" d="M 507.5,110.5 C 508.833,111.167 508.833,111.167 507.5,110.5 Z"/></g>
<g><path style="opacity:0.004" fill="#fefffe" d="M 88.5,111.5 C 89.8333,112.167 89.8333,112.167 88.5,111.5 Z"/></g>
<g><path style="opacity:0.004" fill="#fefffe" d="M 510.5,111.5 C 511.833,112.167 511.833,112.167 510.5,111.5 Z"/></g>
<g><path style="opacity:0.004" fill="#fefffe" d="M 509.5,113.5 C 510.833,114.167 510.833,114.167 509.5,113.5 Z"/></g>
<g><path style="opacity:0.004" fill="#fefffe" d="M 513.5,119.5 C 514.833,120.167 514.833,120.167 513.5,119.5 Z"/></g>
<g><path style="opacity:0.004" fill="#fefffe" d="M 85.5,121.5 C 84.8333,120.167 84.8333,120.167 85.5,121.5 Z"/></g>
<g><path style="opacity:0.004" fill="#fefffe" d="M 518.5,120.5 C 519.833,121.167 519.833,121.167 518.5,120.5 Z"/></g>
<g><path style="opacity:0.004" fill="#fefffe" d="M 516.5,121.5 C 517.833,122.167 517.833,122.167 516.5,121.5 Z"/></g>
<g><path style="opacity:0.004" fill="#fefffe" d="M 79.5,123.5 C 80.8333,124.167 80.8333,124.167 79.5,123.5 Z"/></g>
<g><path style="opacity:0.004" fill="#fefffe" d="M 81.5,123.5 C 82.8333,124.167 82.8333,124.167 81.5,123.5 Z"/></g>
<g><path style="opacity:0.004" fill="#fefffe" d="M 518.5,127.5 C 517.833,126.167 517.833,126.167 518.5,127.5 Z"/></g>
<g><path style="opacity:0.004" fill="#fefffe" d="M 518.5,127.5 C 519.833,128.167 519.833,128.167 518.5,127.5 Z"/></g>
<g><path style="opacity:1" fill="#fefefe" d="M 286.5,148.5 C 338.948,145.795 381.448,164.795 414,205.5C 444.141,250.582 448.808,298.249 428,348.5C 405.838,393.309 370.005,419.809 320.5,428C 285.888,433.144 253.721,426.644 224,408.5C 203.411,414.938 182.911,421.605 162.5,428.5C 161.369,426.926 161.202,425.259 162,423.5C 167.965,403.973 173.465,384.306 178.5,364.5C 147.714,308.044 150.88,253.71 188,201.5C 213.806,170.846 246.639,153.179 286.5,148.5 Z"/></g>
<g><path style="opacity:1" fill="#1052a8" d="M 234.5,209.5 C 239.959,209.103 245.292,209.603 250.5,211C 251.333,211.833 252.167,212.667 253,213.5C 257.87,224.452 262.537,235.452 267,246.5C 267.667,250.167 267.667,253.833 267,257.5C 262.544,262.781 258.711,268.448 255.5,274.5C 259.642,285.45 265.809,295.117 274,303.5C 285.491,315.164 298.991,323.664 314.5,329C 317.303,329.755 319.97,329.422 322.5,328C 327.167,322.667 331.833,317.333 336.5,312C 339.833,311.333 343.167,311.333 346.5,312C 357.971,316.034 368.804,321.201 379,327.5C 380.813,349.698 370.646,362.532 348.5,366C 331.785,367.659 315.785,364.992 300.5,358C 262.942,340.775 235.775,313.275 219,275.5C 211.528,259.393 210.862,243.059 217,226.5C 221.431,219.234 227.264,213.567 234.5,209.5 Z"/></g>
<g><path style="opacity:0.02" fill="#e1e7f3" d="M 517.5,461.5 C 517.286,463.144 517.62,464.644 518.5,466C 517.906,466.464 517.239,466.631 516.5,466.5C 516.216,464.585 516.549,462.919 517.5,461.5 Z"/></g>
<g><path style="opacity:0.243" fill="#c5d0e8" d="M 515.5,469.5 C 515.598,471.553 514.931,473.22 513.5,474.5C 513.402,472.447 514.069,470.78 515.5,469.5 Z"/></g>
<g><path style="opacity:0.004" fill="#fefffe" d="M 80.5,473.5 C 81.8333,474.167 81.8333,474.167 80.5,473.5 Z"/></g>
<g><path style="opacity:0.004" fill="#fefffe" d="M 518.5,477.5 C 519.833,478.167 519.833,478.167 518.5,477.5 Z"/></g>
<g><path style="opacity:0.004" fill="#fefffe" d="M 80.5,478.5 C 81.8333,479.167 81.8333,479.167 80.5,478.5 Z"/></g>
<g><path style="opacity:0.004" fill="#fefffe" d="M 510.5,486.5 C 511.833,487.167 511.833,487.167 510.5,486.5 Z"/></g>
<g><path style="opacity:0.004" fill="#fefffe" d="M 507.5,489.5 C 508.833,490.167 508.833,490.167 507.5,489.5 Z"/></g>
<g><path style="opacity:0.004" fill="#fefffe" d="M 94.5,490.5 C 93.8333,491.167 93.8333,491.167 94.5,490.5 Z"/></g>
<g><path style="opacity:0.004" fill="#fefffe" d="M 506.5,492.5 C 507.833,493.167 507.833,493.167 506.5,492.5 Z"/></g>
<g><path style="opacity:0.004" fill="#fefffe" d="M 501.5,494.5 C 502.833,495.167 502.833,495.167 501.5,494.5 Z"/></g>
<g><path style="opacity:0.025" fill="#fefffe" d="M 99.5,495.5 C 100.5,495.833 101.167,496.5 101.5,497.5C 100.167,497.5 99.5,496.833 99.5,495.5 Z"/></g>
<g><path style="opacity:0.017" fill="#fefffe" d="M 499.5,495.5 C 499.5,496.833 498.833,497.5 497.5,497.5C 497.833,496.5 498.5,495.833 499.5,495.5 Z"/></g>
<g><path style="opacity:0.004" fill="#fefffe" d="M 95.5,498.5 C 96.8333,499.167 96.8333,499.167 95.5,498.5 Z"/></g>
<g><path style="opacity:0.004" fill="#fefffe" d="M 100.5,500.5 C 101.833,501.167 101.833,501.167 100.5,500.5 Z"/></g>
<g><path style="opacity:0.004" fill="#fefffe" d="M 495.5,502.5 C 496.833,503.167 496.833,503.167 495.5,502.5 Z"/></g>
<g><path style="opacity:0.004" fill="#fefffe" d="M 501.5,502.5 C 502.833,503.167 502.833,503.167 501.5,502.5 Z"/></g>
<g><path style="opacity:0.004" fill="#fefffe" d="M 106.5,503.5 C 107.833,504.167 107.833,504.167 106.5,503.5 Z"/></g>
<g><path style="opacity:0.004" fill="#fefffe" d="M 111.5,505.5 C 110.833,506.167 110.833,506.167 111.5,505.5 Z"/></g>
<g><path style="opacity:0.004" fill="#fefffe" d="M 103.5,506.5 C 104.833,507.167 104.833,507.167 103.5,506.5 Z"/></g>
<g><path style="opacity:0.004" fill="#fefffe" d="M 486.5,506.5 C 487.833,507.167 487.833,507.167 486.5,506.5 Z"/></g>
<g><path style="opacity:0.004" fill="#fefffe" d="M 488.5,506.5 C 489.833,507.167 489.833,507.167 488.5,506.5 Z"/></g>
<g><path style="opacity:0.004" fill="#fefffe" d="M 117.5,510.5 C 116.833,509.167 116.833,509.167 117.5,510.5 Z"/></g>
<g><path style="opacity:0.004" fill="#fefffe" d="M 116.5,510.5 C 115.833,511.167 115.833,511.167 116.5,510.5 Z"/></g>
<g><path style="opacity:0.004" fill="#fefffe" d="M 117.5,510.5 C 117.833,510.5 118.167,510.5 118.5,510.5C 118.315,511.17 117.981,511.17 117.5,510.5 Z"/></g>
<g><path style="opacity:0.004" fill="#fefffe" d="M 484.5,510.5 C 485.833,511.167 485.833,511.167 484.5,510.5 Z"/></g>
<g><path style="opacity:0.004" fill="#fefffe" d="M 488.5,510.5 C 489.833,511.167 489.833,511.167 488.5,510.5 Z"/></g>
<g><path style="opacity:0.009" fill="#f1f4f9" d="M 127.5,512.5 C 128.791,512.263 129.791,512.596 130.5,513.5C 128.804,515.129 127.804,514.796 127.5,512.5 Z"/></g>
<g><path style="opacity:0.435" fill="#aebfde" d="M 131.5,513.5 C 133.415,513.216 135.081,513.549 136.5,514.5C 135.178,514.33 134.011,514.663 133,515.5C 132.283,514.956 131.783,514.289 131.5,513.5 Z"/></g>
<g><path style="opacity:0.574" fill="#4f6ab2" d="M 136.5,514.5 C 244.833,514.5 353.167,514.5 461.5,514.5C 459.107,515.21 456.607,515.877 454,516.5C 348.069,515.834 242.236,515.168 136.5,514.5 Z"/></g>
<g><path style="opacity:0.004" fill="#fefffe" d="M 130.5,515.5 C 131.833,516.167 131.833,516.167 130.5,515.5 Z"/></g>
<g><path style="opacity:0.004" fill="#fefffe" d="M 471.5,515.5 C 472.833,516.167 472.833,516.167 471.5,515.5 Z"/></g>
<g><path style="opacity:0.004" fill="#fefffe" d="M 473.5,515.5 C 474.833,516.167 474.833,516.167 473.5,515.5 Z"/></g>
<g><path style="opacity:0.004" fill="#fefffe" d="M 193.5,516.5 C 194.833,517.167 194.833,517.167 193.5,516.5 Z"/></g>
<g><path style="opacity:0.004" fill="#fefffe" d="M 447.5,516.5 C 448.833,517.167 448.833,517.167 447.5,516.5 Z"/></g>
<g><path style="opacity:0.004" fill="#fefffe" d="M 469.5,516.5 C 470.833,517.167 470.833,517.167 469.5,516.5 Z"/></g>
<g><path style="opacity:0.004" fill="#fefffe" d="M 465.5,517.5 C 466.833,518.167 466.833,518.167 465.5,517.5 Z"/></g>
<g><path style="opacity:0.004" fill="#fefffe" d="M 124.5,519.5 C 124.897,518.475 125.563,518.308 126.5,519C 125.906,519.464 125.239,519.631 124.5,519.5 Z"/></g>
</svg>
